<svg width="273" height="401" fill="none" xmlns="http://www.w3.org/2000/svg"><path d="M31 31C47 14.666 94-12.7 154 8.5 229 35 263 64.5 266.5 93s-64 52.5-160.5 53C28.8 146.4.5 158 .5 174c18.5 17 76 25.5 142 25.5 49.502 0 91.973 24.19 115.386 43.456 6.608 5.437 9.912 8.156 12.656 16.266.304.897.962 3.47 1.127 4.403 1.487 8.431.118 11.846-2.621 18.677-8.742 21.802-32.03 40.314-111.048 47.198C52.4 338.7-7.5 356 4.5 379c43.5 16.5 97.7 26.9 148.5 16.5" stroke="#fff" stroke-opacity=".3" stroke-dasharray="3 3"/></svg>